<svg width="72" height="11" viewBox="0 0 72 11" fill="none" xmlns="http://www.w3.org/2000/svg">
<path d="M3.93349 10.1334C2.68905 10.1334 1.72016 9.76892 1.02682 9.04003C0.342378 8.31114 0.000156254 7.26669 0.000156254 5.90669V0.653361H1.78682V5.84003C1.78682 7.62669 2.50682 8.52003 3.94682 8.52003C5.37793 8.52003 6.09349 7.62669 6.09349 5.84003V0.653361H7.85349V5.90669C7.85349 7.26669 7.50682 8.31114 6.81349 9.04003C6.12905 9.76892 5.16905 10.1334 3.93349 10.1334ZM10.0976 0.0933607V9.98669H8.36427V0.0933607H10.0976ZM12.7946 10.08C12.2435 10.08 11.7013 10.0045 11.168 9.85336C10.6435 9.70225 10.2257 9.51114 9.91464 9.28003L10.488 7.98669C10.7991 8.20003 11.168 8.37336 11.5946 8.50669C12.0213 8.64003 12.448 8.70669 12.8746 8.70669C13.7991 8.70669 14.2613 8.44447 14.2613 7.92003C14.2613 7.67114 14.1369 7.49781 13.888 7.40003C13.648 7.29336 13.2657 7.20003 12.7413 7.12003C12.1902 7.03114 11.7369 6.92892 11.3813 6.81336C11.0346 6.69781 10.7324 6.49781 10.4746 6.21336C10.2169 5.92003 10.088 5.51558 10.088 5.00003C10.088 4.56447 10.208 4.17781 10.448 3.84003C10.688 3.50225 11.0346 3.24003 11.488 3.05336C11.9413 2.85781 12.4835 2.76003 13.1146 2.76003C13.5857 2.76003 14.0524 2.81781 14.5146 2.93336C14.9857 3.04003 15.3724 3.19558 15.6746 3.40003L15.088 4.69336C14.5013 4.32003 13.8435 4.13336 13.1146 4.13336C12.6524 4.13336 12.3057 4.20892 12.0746 4.36003C11.8524 4.50225 11.7413 4.69336 11.7413 4.93336C11.7413 5.19114 11.8613 5.37336 12.1013 5.48003C12.3502 5.57781 12.7457 5.67558 13.288 5.77336C13.8391 5.87114 14.288 5.97781 14.6346 6.09336C14.9813 6.20892 15.2791 6.40892 15.528 6.69336C15.7769 6.97781 15.9013 7.37336 15.9013 7.88003C15.9013 8.53781 15.6257 9.07114 15.0746 9.48003C14.5324 9.88003 13.7724 10.08 12.7946 10.08ZM18.4161 2.76003C19.4294 2.76003 20.2028 3.01781 20.7361 3.53336C21.2783 4.04003 21.5494 4.80447 21.5494 5.82669V9.98669H19.9361V9.01336C19.7494 9.36003 19.4739 9.62669 19.1094 9.81336C18.745 9.99114 18.3094 10.08 17.8028 10.08C17.0294 10.08 16.4161 9.88447 15.9628 9.49336C15.5094 9.09336 15.2828 8.57781 15.2828 7.94669C15.2828 7.29781 15.5139 6.78669 15.9761 6.41336C16.4383 6.03114 17.1539 5.84003 18.1228 5.84003H19.8294C19.8294 5.53781 19.785 5.29336 19.6961 5.10669C19.5005 4.50225 18.9983 4.20003 18.1894 4.20003C17.8072 4.20003 17.4339 4.26669 17.0694 4.40003C16.7139 4.52447 16.4072 4.69336 16.1494 4.90669L15.5228 3.65336C15.8872 3.36892 16.3228 3.15114 16.8294 3.00003C17.345 2.84003 17.8739 2.76003 18.4161 2.76003ZM18.2161 8.85336C18.5983 8.85336 18.9316 8.76003 19.2161 8.57336C19.5005 8.38669 19.705 8.11558 19.8294 7.76003V6.90669H18.3094C17.4116 6.90669 16.9628 7.22669 16.9628 7.86669C16.9628 8.16892 17.0739 8.40892 17.2961 8.58669C17.5183 8.76447 17.825 8.85336 18.2161 8.85336ZM25.6914 2.76003C26.5359 2.76003 27.2114 3.02225 27.7181 3.54669C28.2336 4.07114 28.4914 4.84892 28.4914 5.88003V9.98669H26.7714V6.16003C26.7714 5.54669 26.6381 5.08892 26.3714 4.78669C26.1136 4.47558 25.7359 4.32003 25.2381 4.32003C24.687 4.32003 24.247 4.50225 23.9181 4.86669C23.5981 5.22225 23.4381 5.73781 23.4381 6.41336V9.98669H21.7181V2.85336H23.3581V3.84003C23.6159 3.49336 23.9447 3.22669 24.3447 3.04003C24.7536 2.85336 25.2025 2.76003 25.6914 2.76003ZM33.1754 10.1334C32.2776 10.1334 31.4643 9.92892 30.7354 9.52003C30.0154 9.10225 29.4465 8.52892 29.0287 7.80003C28.6198 7.06225 28.4154 6.23558 28.4154 5.32003C28.4154 4.40447 28.6198 3.58225 29.0287 2.85336C29.4465 2.11558 30.0198 1.54225 30.7487 1.13336C31.4776 0.715583 32.2909 0.506694 33.1887 0.506694C33.9265 0.506694 34.5976 0.644472 35.202 0.920027C35.8154 1.18669 36.3309 1.57781 36.7487 2.09336L35.602 3.21336C34.9709 2.47558 34.1976 2.10669 33.282 2.10669C32.6954 2.10669 32.1665 2.24447 31.6954 2.52003C31.2331 2.79558 30.8687 3.17781 30.602 3.66669C30.3443 4.14669 30.2154 4.69781 30.2154 5.32003C30.2154 5.93336 30.3443 6.48447 30.602 6.97336C30.8687 7.45336 31.2331 7.83114 31.6954 8.10669C32.1665 8.38225 32.6954 8.52003 33.282 8.52003C34.2065 8.52003 34.9798 8.15114 35.602 7.41336L36.7487 8.53336C36.3398 9.04892 35.8287 9.44447 35.2154 9.72003C34.602 9.99558 33.922 10.1334 33.1754 10.1334ZM38.9684 2.76003C39.9818 2.76003 40.7551 3.01781 41.2884 3.53336C41.8307 4.04003 42.1018 4.80447 42.1018 5.82669V9.98669H40.4884V9.01336C40.3018 9.36003 40.0262 9.62669 39.6618 9.81336C39.2973 9.99114 38.8618 10.08 38.3551 10.08C37.5818 10.08 36.9684 9.88447 36.5151 9.49336C36.0618 9.09336 35.8351 8.57781 35.8351 7.94669C35.8351 7.29781 36.0662 6.78669 36.5284 6.41336C36.9907 6.03114 37.7062 5.84003 38.6751 5.84003H40.3818C40.3818 5.53781 40.3373 5.29336 40.2484 5.10669C40.0529 4.50225 39.5507 4.20003 38.7418 4.20003C38.3595 4.20003 37.9862 4.26669 37.6218 4.40003C37.2662 4.52447 36.9595 4.69336 36.7018 4.90669L36.0751 3.65336C36.4395 3.36892 36.8751 3.15114 37.3818 3.00003C37.8973 2.84003 38.4262 2.76003 38.9684 2.76003ZM38.7684 8.85336C39.1507 8.85336 39.484 8.76003 39.7684 8.57336C40.0529 8.38669 40.2573 8.11558 40.3818 7.76003V6.90669H38.8618C37.964 6.90669 37.5151 7.22669 37.5151 7.86669C37.5151 8.16892 37.6262 8.40892 37.8484 8.58669C38.0707 8.76447 38.3773 8.85336 38.7684 8.85336ZM45.1637 1.42669C44.5237 1.42669 44.2037 1.79558 44.2037 2.53336V2.98669H46.0171V4.38669H44.2437V9.98669H42.5237V4.38669H41.4437V2.98669H42.5237V2.52003C42.5237 1.74669 42.7415 1.13336 43.1771 0.680028C43.6126 0.226694 44.2215 2.76566e-05 45.0037 2.76566e-05C45.2971 2.76566e-05 45.5726 0.035583 45.8304 0.106694C46.0882 0.168916 46.3015 0.266694 46.4704 0.400027L46.0037 1.70669C45.7637 1.52003 45.4837 1.42669 45.1637 1.42669ZM52.0302 6.42669C52.0302 6.46225 52.0169 6.62669 51.9902 6.92003H46.7369C46.8169 7.44447 47.048 7.86225 47.4302 8.17336C47.8124 8.47558 48.288 8.62669 48.8569 8.62669C49.5769 8.62669 50.1724 8.37781 50.6435 7.88003L51.5635 8.92003C50.9147 9.69336 49.9947 10.08 48.8035 10.08C48.0569 10.08 47.3947 9.92447 46.8169 9.61336C46.2391 9.29336 45.7902 8.85781 45.4702 8.30669C45.1591 7.74669 45.0035 7.11558 45.0035 6.41336C45.0035 5.72003 45.1547 5.09781 45.4569 4.54669C45.768 3.98669 46.1947 3.55114 46.7369 3.24003C47.2791 2.92003 47.8835 2.76003 48.5502 2.76003C49.208 2.76003 49.7991 2.91114 50.3235 3.21336C50.8569 3.51558 51.2747 3.94225 51.5769 4.49336C51.8791 5.04447 52.0302 5.68892 52.0302 6.42669ZM48.5635 4.13336C48.0658 4.13336 47.648 4.29336 47.3102 4.61336C46.9813 4.92447 46.7858 5.33781 46.7235 5.85336H50.4035C50.3324 5.33781 50.1324 4.92447 49.8035 4.61336C49.4747 4.29336 49.0613 4.13336 48.5635 4.13336ZM53.8708 0.653361V9.98669H52.0842V0.653361H53.8708ZM58.4172 2.76003C59.2616 2.76003 59.9372 3.02225 60.4439 3.54669C60.9594 4.07114 61.2172 4.84892 61.2172 5.88003V9.98669H59.4972V6.16003C59.4972 5.54669 59.3639 5.08892 59.0972 4.78669C58.8394 4.47558 58.4616 4.32003 57.9639 4.32003C57.4127 4.32003 56.9727 4.50225 56.6439 4.86669C56.3239 5.22225 56.1639 5.73781 56.1639 6.41336V9.98669H54.4439V2.85336H56.0839V3.84003C56.3416 3.49336 56.6705 3.22669 57.0705 3.04003C57.4794 2.85336 57.9283 2.76003 58.4172 2.76003ZM64.2583 1.42669C63.6183 1.42669 63.2983 1.79558 63.2983 2.53336V2.98669H65.1116V4.38669H63.3383V9.98669H61.6183V4.38669H60.5383V2.98669H61.6183V2.52003C61.6183 1.74669 61.8361 1.13336 62.2716 0.680028C62.7072 0.226694 63.3161 2.76566e-05 64.0983 2.76566e-05C64.3916 2.76566e-05 64.6672 0.035583 64.9249 0.106694C65.1827 0.168916 65.3961 0.266694 65.5649 0.400027L65.0983 1.70669C64.8583 1.52003 64.5783 1.42669 64.2583 1.42669ZM67.7781 10.08C67.0758 10.08 66.4447 9.92447 65.8847 9.61336C65.3247 9.30225 64.8847 8.86669 64.5647 8.30669C64.2536 7.74669 64.0981 7.11558 64.0981 6.41336C64.0981 5.71114 64.2536 5.08447 64.5647 4.53336C64.8847 3.97336 65.3247 3.53781 65.8847 3.22669C66.4447 2.91558 67.0758 2.76003 67.7781 2.76003C68.4714 2.76003 69.0936 2.91558 69.6447 3.22669C70.2047 3.53781 70.6403 3.97336 70.9514 4.53336C71.2625 5.08447 71.4181 5.71114 71.4181 6.41336C71.4181 7.11558 71.2625 7.74669 70.9514 8.30669C70.6403 8.86669 70.2047 9.30225 69.6447 9.61336C69.0936 9.92447 68.4714 10.08 67.7781 10.08ZM67.7781 8.58669C68.3292 8.58669 68.7825 8.39114 69.1381 8.00003C69.5025 7.60003 69.6847 7.07114 69.6847 6.41336C69.6847 5.75558 69.5025 5.23114 69.1381 4.84003C68.7825 4.44892 68.3292 4.25336 67.7781 4.25336C67.2181 4.25336 66.7558 4.44892 66.3914 4.84003C66.027 5.23114 65.8447 5.75558 65.8447 6.41336C65.8447 7.07114 66.027 7.60003 66.3914 8.00003C66.7558 8.39114 67.2181 8.58669 67.7781 8.58669Z" fill="#6ED1FF"/>
</svg>
